<svg xmlns="http://www.w3.org/2000/svg" width="110" height="110.265" viewBox="0 0 110 110.265"><defs><style>.a{fill:#fff;}</style></defs><g transform="translate(-0.071)"><path class="a" d="M3.718,18.108l.129,16.834L.086,16.061,98.293,0l3.448,20.559Z" transform="translate(0.011)"/><path class="a" d="M103.7,15.186l-1.53,16.65L5.47,16.809,4.419,22.358l-.074-9.643Z" transform="translate(3.09 9.192)"/><path class="a" d="M42.516,30.121A17.329,17.329,0,1,0,53.786,37.31,17.5,17.5,0,0,0,42.516,30.121Zm5.322,15.037-.172.443a1.724,1.724,0,1,1-3.23-1.206l.172-.45a1.79,1.79,0,0,0-1.048-2.31l-2.944-1.1A1.792,1.792,0,0,0,38.5,43.211l5.117,6.719a5.279,5.279,0,0,1,.619,4.841l-.467,1.249a5.251,5.251,0,0,1-4.915,3.4,5.2,5.2,0,0,1-1.775-.317l-.662,1.766a1.723,1.723,0,1,1-3.227-1.206l.667-1.783a5.2,5.2,0,0,1-2.845-6.633l.634-1.694a1.723,1.723,0,1,1,3.227,1.206l-.634,1.693a1.794,1.794,0,0,0,1.051,2.309l2.941,1.1a1.8,1.8,0,0,0,2.309-1.051l.467-1.247a1.792,1.792,0,0,0-.191-1.626L35.7,45.222a5.224,5.224,0,0,1,5.88-7.977l.668-1.783a1.723,1.723,0,1,1,3.227,1.206l-.66,1.764a5.227,5.227,0,0,1,3.022,6.719Z" transform="translate(15.753 21.566)"/><path class="a" d="M16.941,31.647a5.619,5.619,0,0,0-.973-.086,5.5,5.5,0,0,0-3.177,1.013,5.624,5.624,0,0,0-1.378,7.8,5.525,5.525,0,0,0,7.731,1.37,5.624,5.624,0,0,0,1.378-7.8,5.5,5.5,0,0,0-3.58-2.3Z" transform="translate(7.473 22.815)"/><path class="a" d="M11.52,17.527.071,78.3,97.613,97.6l12.458-64.758ZM32.3,48.884a118.182,118.182,0,1,0,0-.007ZM75.732,59.893A20.947,20.947,0,0,1,55.188,77.187a20.689,20.689,0,0,1-3.628-.322A20.94,20.94,0,1,1,75.73,59.884ZM94.06,68.507a8.93,8.93,0,0,1-5.15,1.638,9.028,9.028,0,1,1,5.15-1.638Z" transform="translate(0 12.67)"/><path class="a" d="M54.941,39.647a5.619,5.619,0,0,0-.973-.086,5.5,5.5,0,0,0-3.177,1.013,5.624,5.624,0,0,0-1.378,7.8,5.525,5.525,0,0,0,7.731,1.37,5.624,5.624,0,0,0,1.378-7.8,5.5,5.5,0,0,0-3.58-2.3Z" transform="translate(34.943 28.598)"/></g></svg>