<svg xmlns="http://www.w3.org/2000/svg" xmlns:xlink="http://www.w3.org/1999/xlink" width="310" height="310" viewBox="0 0 310 310"><defs><style>.a{fill:#0864b1;}.b{fill:#fff;}.c{filter:url(#a);}</style><filter id="a" x="0" y="0" width="310" height="310" filterUnits="userSpaceOnUse"><feOffset input="SourceAlpha"/><feGaussianBlur stdDeviation="10" result="b"/><feFlood flood-color="#0864b1" flood-opacity="0.102"/><feComposite operator="in" in2="b"/><feComposite in="SourceGraphic"/></filter></defs><g transform="translate(-805 -2481)"><g class="c" transform="matrix(1, 0, 0, 1, 805, 2481)"><rect class="a" width="250" height="250" transform="translate(30 30)"/></g><g transform="translate(900 2558.647)"><path class="b" d="M112.506,254.5v-62.8H91.411V254.5l-7.032,0V205.769H63.285v48.722l-7.032,0V219.832H35.159v34.651l-7.032,0V233.9H7.033v20.581l-7.031,0,0,7.031,120,.031,0-7.031Z" transform="translate(0 -129.661)"/><path class="b" d="M68,82.505l78.191-45.814-1.413,5.35,6.8,1.8,4.489-16.995-16.995-4.489-1.8,6.8,5.43,1.434L64.448,76.439Z" transform="translate(-49.343)"/></g></g></svg>