<svg xmlns="http://www.w3.org/2000/svg" width="120" height="120" viewBox="0 0 120 120"><defs><style>.a{fill:#fff;}</style></defs><path class="a" d="M15,17.285a3.751,3.751,0,0,1-3.75-3.75V3.75a3.75,3.75,0,0,1,7.5,0v9.785A3.751,3.751,0,0,1,15,17.285Z" transform="translate(45)"/><path class="a" d="M21.57,17.718a3.752,3.752,0,0,1-2.65-6.4l6.92-6.92a3.751,3.751,0,0,1,5.305,5.3l-6.92,6.92A3.761,3.761,0,0,1,21.57,17.718Z" transform="translate(71.285 13.177)"/><path class="a" d="M34.078,18.75H24.293a3.75,3.75,0,1,1,0-7.5h9.785a3.75,3.75,0,0,1,0,7.5Z" transform="translate(82.172 45)"/><path class="a" d="M28.49,32.244a3.72,3.72,0,0,1-2.65-1.1l-6.92-6.92a3.751,3.751,0,0,1,5.305-5.305l6.92,6.92a3.753,3.753,0,0,1-2.655,6.405Z" transform="translate(71.285 71.281)"/><path class="a" d="M7.044,32.244a3.753,3.753,0,0,1-2.65-6.405l6.92-6.92a3.751,3.751,0,0,1,5.305,5.305L9.7,31.144A3.74,3.74,0,0,1,7.044,32.244Z" transform="translate(13.181 71.281)"/><path class="a" d="M13.535,18.75H3.75a3.75,3.75,0,0,1,0-7.5h9.785a3.75,3.75,0,0,1,0,7.5Z" transform="translate(0 45)"/><path class="a" d="M13.964,17.718a3.72,3.72,0,0,1-2.65-1.1L4.394,9.7A3.751,3.751,0,1,1,9.7,4.393l6.92,6.92a3.752,3.752,0,0,1-2.655,6.4Z" transform="translate(13.181 13.177)"/><path class="a" d="M39,21v6.25A8.792,8.792,0,0,1,30.25,36H17.75C13.55,36,9,32.8,9,25.8V21Z" transform="translate(36 84)"/><path class="a" d="M62.055,12.795a35,35,0,1,0-43.1,55.15,15.1,15.1,0,0,1,5.7,9.55v.05a.851.851,0,0,1,.35-.05h30a.451.451,0,0,1,.25.05v-.05a16.678,16.678,0,0,1,6.4-10,35.019,35.019,0,0,0,.4-54.7Zm-3.3,29.7a3.777,3.777,0,0,1-3.75-3.75,13.742,13.742,0,0,0-13.75-13.75,3.75,3.75,0,1,1,0-7.5,21.3,21.3,0,0,1,21.25,21.25A3.777,3.777,0,0,1,58.755,42.495Z" transform="translate(19.995 20.005)"/><path class="a" d="M8.93,19.5h.35a.851.851,0,0,0-.35.05Z" transform="translate(35.72 78)"/><path class="a" d="M15.25,19.5v.05A.451.451,0,0,0,15,19.5Z" transform="translate(60 78)"/></svg>